<?xml version="1.0" encoding="iso-8859-1"?>
<!-- Generator: Adobe Illustrator 19.0.0, SVG Export Plug-In . SVG Version: 6.00 Build 0)  -->
<svg version="1.1" id="Layer_1" xmlns="http://www.w3.org/2000/svg" xmlns:xlink="http://www.w3.org/1999/xlink" x="0px" y="0px"
	 viewBox="0 0 512 512" style="enable-background:new 0 0 512 512;" xml:space="preserve">
<path style="fill:#D5EBEF;" d="M483.408,249.096c0.222-1.465,0.338-2.965,0.338-4.493c0-16.388-13.285-29.674-29.674-29.674
	c-3.454,0-6.768,0.597-9.851,1.682c-8.951-15.571-25.751-26.057-45-26.057c-23.071,0-42.622,15.065-49.358,35.894
	c-28.437,0.244-51.415,23.368-51.415,51.863c0,28.646,23.222,51.868,51.868,51.868h109.825c24.233,0,43.878-19.645,43.878-43.878
	C504.021,270.616,495.788,256.854,483.408,249.096z"/>
<path style="opacity:0.1;enable-background:new    ;" d="M470.134,320.189H360.309c-28.646,0-51.868-23.222-51.868-51.868
	c0-7.668,0.774-15.849,2.457-23.717c-7.761,9.065-12.449,20.838-12.449,33.709c0,28.646,23.222,51.868,51.868,51.868h109.825
	c14.666,0,27.65-7.198,35.617-18.251C488.551,317.126,479.701,320.189,470.134,320.189z"/>
<circle style="fill:#F2E7BF;" cx="257.47" cy="223.299" r="163.895"/>
<path style="opacity:0.05;enable-background:new    ;" d="M210.436,66.265c-40.774,12.195-74.877,39.827-95.522,76.121
	c8.372,3.586,17.593,5.575,27.278,5.575c38.297,0,69.342-31.046,69.342-69.342C211.534,74.403,211.158,70.274,210.436,66.265z"/>
<circle style="opacity:0.05;enable-background:new    ;" cx="323.14" cy="292.704" r="35.954"/>
<circle style="opacity:0.05;enable-background:new    ;" cx="195.023" cy="279.98" r="64.556"/>
<path style="opacity:0.05;enable-background:new    ;" d="M273.276,371.385c-90.517,0-163.895-73.378-163.895-163.895
	c0-41.235,15.233-78.909,40.372-107.715c-34.426,30.045-56.18,74.241-56.18,123.522c0,90.517,73.378,163.895,163.895,163.895
	c49.281,0,93.477-21.754,123.522-56.18C352.185,356.152,314.51,371.385,273.276,371.385z"/>
<path style="fill:#D5EBEF;" d="M331.625,310.713c0.389-2.564,0.593-5.188,0.593-7.861c0-28.677-23.247-51.923-51.923-51.923
	c-6.045,0-11.843,1.044-17.237,2.943c-15.662-27.247-45.06-45.595-78.742-45.595c-40.372,0-74.58,26.362-86.368,62.808
	c-49.762,0.427-89.97,40.89-89.97,90.751c0,50.126,40.635,90.761,90.761,90.761h192.176c42.404,0,76.779-34.376,76.779-76.779
	C367.695,348.367,353.287,324.286,331.625,310.713z"/>
<path style="opacity:0.1;enable-background:new    ;" d="M308.398,435.114H116.222c-50.126,0-90.761-40.635-90.761-90.761
	c0-13.417,1.355-27.733,4.301-41.501c-13.579,15.863-21.783,36.464-21.783,58.983c0,50.126,40.635,90.761,90.761,90.761h192.176
	c25.664,0,48.383-12.595,62.325-31.936C340.624,429.754,325.138,435.114,308.398,435.114z"/>
<path d="M258.531,330.68c-4.406,0-7.979,3.572-7.979,7.979v8.758c0,4.406,3.572,7.979,7.979,7.979c4.406,0,7.979-3.572,7.979-7.979
	v-8.758C266.51,334.252,262.938,330.68,258.531,330.68z M218.448,361.004c-4.406,0-7.979,3.572-7.979,7.979
	c0,4.04-3.286,7.327-7.327,7.327c-4.039,0-7.327-3.286-7.327-7.327c0-4.406-3.572-7.979-7.979-7.979s-7.979,3.572-7.979,7.979
	c0,4.04-3.286,7.327-7.327,7.327c-4.04,0-7.327-3.286-7.327-7.327c0-4.406-3.572-7.979-7.979-7.979
	c-4.406,0-7.979,3.572-7.979,7.979c0,12.839,10.445,23.284,23.284,23.284c5.854,0,11.211-2.171,15.305-5.751
	c4.096,3.58,9.451,5.751,15.305,5.751c12.839,0,23.284-10.445,23.284-23.284C226.427,364.577,222.855,361.004,218.448,361.004z
	 M491.721,245.163c0.002-0.186,0.004-0.373,0.004-0.56c0-20.761-16.891-37.651-37.651-37.651c-2.11,0-4.204,0.176-6.268,0.523
	c-5.683-7.872-13.249-14.304-21.937-18.638c-16.002-78.313-85.429-137.411-168.401-137.411
	c-94.772,0-171.873,77.102-171.873,171.872c0,13.569,1.593,27.059,4.736,40.18c-23.341,1.96-45.022,12.02-61.693,28.825
	C10.171,310.918,0,335.612,0,361.835c0,54.445,44.295,98.739,98.74,98.739h192.176c46.736,0,84.758-38.023,84.758-84.758
	c0-8.436-1.234-16.663-3.574-24.479c4.664-4.177,9.073-8.576,13.214-13.179h74.829c28.594,0,51.858-23.263,51.858-51.858
	C512,269.992,504.503,254.948,491.721,245.163z M290.916,444.618H98.74c-45.646,0-82.782-37.136-82.782-82.782
	c0-45.253,36.811-82.385,82.058-82.773c3.435-0.029,6.466-2.254,7.523-5.522c11.082-34.263,42.74-57.284,78.776-57.284
	c29.557,0,57.078,15.937,71.825,41.593c1.916,3.333,5.937,4.826,9.566,3.55c4.695-1.652,9.604-2.489,14.589-2.489
	c24.231,0,43.944,19.713,43.944,43.944c0,2.228-0.169,4.469-0.502,6.664c-0.477,3.144,0.957,6.27,3.652,7.959
	c20.243,12.684,32.328,34.495,32.328,58.343C359.716,413.754,328.853,444.618,290.916,444.618z M365.586,335.605
	c-6.077-11.283-14.728-21.174-25.517-28.844c0.084-1.303,0.127-2.609,0.127-3.91c0-33.03-26.871-59.901-59.901-59.901
	c-4.615,0-9.182,0.527-13.644,1.571c-18.204-27.428-49.198-44.224-82.337-44.224c-33.286,0-63.437,16.472-81.487,42.885
	c-0.84-6.579-1.277-13.219-1.277-19.884c0-85.972,69.944-155.915,155.916-155.915s155.916,69.944,155.916,155.915
	C413.383,265.906,396.08,306.26,365.586,335.605z M460.143,322.202h-62.114c20.198-28.662,31.313-63.058,31.313-98.903
	c0-4.455-0.171-8.872-0.505-13.244c3.33,3.046,6.205,6.594,8.469,10.533c1.917,3.335,5.939,4.827,9.566,3.55
	c2.317-0.816,4.74-1.229,7.202-1.229c11.962,0,21.694,9.732,21.694,21.694c0,1.103-0.084,2.212-0.248,3.296
	c-0.477,3.143,0.957,6.269,3.652,7.957c10.564,6.62,16.871,18.001,16.871,30.445C496.042,306.097,479.938,322.202,460.143,322.202z
	 M117.142,330.68c-4.406,0-7.979,3.572-7.979,7.979v8.758c0,4.406,3.572,7.979,7.979,7.979c4.406,0,7.979-3.572,7.979-7.979v-8.758
	C125.121,334.252,121.549,330.68,117.142,330.68z M326.002,149.504c-9.509,0-17.244,7.735-17.244,17.244
	c0,4.406,3.572,7.979,7.979,7.979c4.406,0,7.979-3.572,7.979-7.979c0-0.71,0.578-1.286,1.286-1.286s1.286,0.577,1.286,1.286
	c0,4.406,3.572,7.979,7.979,7.979c4.406,0,7.979-3.572,7.979-7.979C343.246,157.24,335.511,149.504,326.002,149.504z
	 M284.842,177.894c-4.406,0-7.979,3.572-7.979,7.979c0,3.147-2.561,5.707-5.707,5.707s-5.707-2.561-5.707-5.707
	c0-4.406-3.572-7.979-7.979-7.979c-4.406,0-7.979,3.572-7.979,7.979c0,3.147-2.561,5.707-5.707,5.707
	c-3.147,0-5.706-2.561-5.706-5.707c0-4.406-3.572-7.979-7.979-7.979s-7.979,3.572-7.979,7.979c0,11.946,9.718,21.665,21.664,21.665
	c5.186,0,9.952-1.832,13.686-4.882c3.734,3.05,8.5,4.882,13.686,4.882c11.946,0,21.665-9.719,21.665-21.665
	C292.821,181.466,289.249,177.894,284.842,177.894z M188.937,149.504c-9.509,0-17.243,7.735-17.243,17.244
	c0,4.406,3.572,7.979,7.979,7.979c4.406,0,7.979-3.572,7.979-7.979c0-0.71,0.577-1.286,1.285-1.286s1.286,0.577,1.286,1.286
	c0,4.406,3.572,7.979,7.979,7.979c4.406,0,7.979-3.572,7.979-7.979C206.181,157.24,198.446,149.504,188.937,149.504z"/>
<g>
</g>
<g>
</g>
<g>
</g>
<g>
</g>
<g>
</g>
<g>
</g>
<g>
</g>
<g>
</g>
<g>
</g>
<g>
</g>
<g>
</g>
<g>
</g>
<g>
</g>
<g>
</g>
<g>
</g>
</svg>
